X Lossless Decoder version 20110417 (131.0)

XLD extraction logfile from 2011-05-02 15:19:46 +0900

Ornette Coleman / Dancing in Your Head

Used drive : HL-DT-ST BD-RE  BH10NS30 (revision EL00)

Ripper mode             : CDParanoia III 10.2
Disable audio cache     : OK for the drive with a cache less than 2750KiB
Make use of C2 pointers : NO
Read offset correction  : 667
Max retry count         : 100
Gap status              : Analyzed, Appended

TOC of the extracted CD
     Track |   Start  |  Length  | Start sector | End sector 
    ---------------------------------------------------------
        1  | 00:00:37 | 15:42:68 |        37    |    70754   
        2  | 15:43:30 | 11:07:50 |     70755    |   120829   
        3  | 26:51:05 | 04:36:57 |    120830    |   141586   

AccurateRip Summary
    Track 01 : OK (confidence 1)
    Track 02 : OK (confidence 1)
    Track 03 : OK (confidence 1)
        ->All tracks accurately ripped.

All Tracks
    Filename : /Users/angelicalbite/Music/flac/Dancing in Your Head.flac
    CRC32 hash             : C6887C49
    CRC32 hash (skip zero) : FD81B194
    Statistics
        Read error                           : 0
        Skipped (treated as error)           : 0
        Edge jitter error (maybe fixed)      : 0
        Atom jitter error (maybe fixed)      : 0
        Drift error (maybe fixed)            : 0
        Dropped bytes error (maybe fixed)    : 0
        Duplicated bytes error (maybe fixed) : 0

Track 01
    Pre-gap length : 00:02:37

    CRC32 hash             : E07C04F0
    CRC32 hash (skip zero) : DEBBC1C2
    AccurateRip signature  : 2C0D767E
        ->Accurately ripped! (confidence 1)
    Statistics
        Read error                           : 0
        Skipped (treated as error)           : 0
        Edge jitter error (maybe fixed)      : 0
        Atom jitter error (maybe fixed)      : 0
        Drift error (maybe fixed)            : 0
        Dropped bytes error (maybe fixed)    : 0
        Duplicated bytes error (maybe fixed) : 0

Track 02
    Pre-gap length : 00:04:42

    CRC32 hash             : 70D065CC
    CRC32 hash (skip zero) : 98E62C19
    AccurateRip signature  : 0ACF9523
        ->Accurately ripped! (confidence 1)
    Statistics
        Read error                           : 0
        Skipped (treated as error)           : 0
        Edge jitter error (maybe fixed)      : 0
        Atom jitter error (maybe fixed)      : 0
        Drift error (maybe fixed)            : 0
        Dropped bytes error (maybe fixed)    : 0
        Duplicated bytes error (maybe fixed) : 0

Track 03
    Pre-gap length : 00:01:04

    CRC32 hash             : 22DC301C
    CRC32 hash (skip zero) : 677F1521
    AccurateRip signature  : 26DEB93E
        ->Accurately ripped! (confidence 1)
    Statistics
        Read error                           : 0
        Skipped (treated as error)           : 0
        Edge jitter error (maybe fixed)      : 0
        Atom jitter error (maybe fixed)      : 0
        Drift error (maybe fixed)            : 0
        Dropped bytes error (maybe fixed)    : 0
        Duplicated bytes error (maybe fixed) : 0

No errors occurred

End of status report
